<?xml version="1.0" encoding="UTF-8" standalone="no"?>
<!-- Created with Inkscape (http://www.inkscape.org/) -->

<svg
   version="1.1"
   id="svg1"
   width="770.47284"
   height="317.88831"
   viewBox="0 0 770.47284 317.88831"
   sodipodi:docname="DASD.svg"
   inkscape:version="1.4.2 (f4327f4, 2025-05-13)"
   xmlns:inkscape="http://www.inkscape.org/namespaces/inkscape"
   xmlns:sodipodi="http://sodipodi.sourceforge.net/DTD/sodipodi-0.dtd"
   xmlns="http://www.w3.org/2000/svg"
   xmlns:svg="http://www.w3.org/2000/svg">
  <defs
     id="defs1" />
  <sodipodi:namedview
     id="namedview1"
     pagecolor="#ffffff"
     bordercolor="#000000"
     borderopacity="0.25"
     inkscape:showpageshadow="2"
     inkscape:pageopacity="0.0"
     inkscape:pagecheckerboard="0"
     inkscape:deskcolor="#d1d1d1"
     inkscape:zoom="0.75488281"
     inkscape:cx="380.85382"
     inkscape:cy="168.90039"
     inkscape:window-width="1920"
     inkscape:window-height="991"
     inkscape:window-x="1911"
     inkscape:window-y="-9"
     inkscape:window-maximized="1"
     inkscape:current-layer="g1" />
  <g
     inkscape:groupmode="layer"
     inkscape:label="Image"
     id="g1"
     transform="translate(-130.96344,-342.93409)">
    <path
       style="fill:#000f85;fill-opacity:1;stroke:#000f85;stroke-opacity:1"
       d="m 241.90666,659.163 c -6.65181,-3.27788 -11.17963,-12.51517 -11.17963,-22.80776 0,-6.8351 2.50497,-20.22684 10.00343,-53.47908 8.75083,-38.80594 6.85628,-35.20028 22.61047,-43.0314 28.03097,-13.93368 40.68699,-29.74999 57.25841,-71.55619 5.55357,-14.01047 8.28204,-25.30177 7.92297,-32.78776 -0.29528,-6.15605 -0.29528,-6.15605 -12.60453,17.18824 -13.23782,25.10533 -28.69173,51.15571 -30.34719,51.15571 -0.63388,0 -0.77514,-1.60716 -0.37354,-4.25 0.64581,-4.25 0.64581,-4.25 -1.58626,-0.75 -7.97745,12.50904 -11.22254,16.95958 -14.94752,20.5 -3.80696,3.61834 -4.14433,3.76146 -3.53572,1.5 0.37004,-1.375 0.92468,-4.975 1.23254,-8 0.55974,-5.5 0.55974,-5.5 -4.39005,2.07469 -7.74653,11.85457 -19.47697,22.72672 -31.20563,28.92238 -2.43479,1.28618 -2.44514,1.27377 -0.91554,-1.09809 1.80301,-2.79581 4.02173,-8.89898 3.2351,-8.89898 -0.29645,0 -2.25604,1.4625 -4.35463,3.25 -9.33186,7.94853 -22.84027,14.06123 -33.51939,15.16788 -5.98292,0.62 -5.98292,0.62 -0.98292,-1.9224 2.75,-1.39832 6.125,-3.46005 7.5,-4.58162 2.5,-2.03923 2.5,-2.03923 0.15527,-1.37909 -7.23891,2.03805 -21.40274,4.44071 -26.24531,4.45209 -11.8291,0.0278 -28.38423,-5.87664 -39.78826,-14.19061 -6.57887,-4.79625 -6.57887,-4.79625 0.39971,-4.80332 9.22575,-0.009 23.2884,-2.17775 33.07222,-5.09958 7.90637,-2.36116 7.90637,-2.36116 1.48807,-3.37726 -6.91068,-1.09404 -8.87959,-2.86901 -4.37525,-3.94429 13.95843,-3.33217 49.79257,-18.7407 62.79355,-27.00096 8.05324,-5.11668 21.42604,-14.91173 21.46704,-15.72376 0.0181,-0.3591 -3.00454,0.61724 -6.71704,2.16965 -3.7125,1.55241 -8.55,3.11201 -10.75,3.46578 -4,0.6432 -4,0.6432 1.65667,-4.44669 3.11117,-2.79945 12.78044,-12.84024 21.48726,-22.31286 31.65628,-34.4406 42.58717,-44.69037 60.35607,-56.59522 28.47142,-19.07534 68.47943,-32.72279 110.06391,-37.54479 20.50625,-2.37783 38.93965,-2.83476 67.93609,-1.684 15.125,0.60025 39.425,1.57014 54,2.15529 14.575,0.58516 34.15,0.92484 43.5,0.75484 18.68259,-0.33967 19.16261,-0.89459 4.11451,-4.7565 -3.78702,-0.97189 -6.44071,-2.04196 -5.89709,-2.37794 0.54362,-0.33597 4.31709,-1.13325 8.38549,-1.77172 8.45262,-1.32651 45.3008,-0.57997 53.31297,1.08011 2.70373,0.5602 5.12875,0.80567 5.38893,0.54549 0.26018,-0.26018 -3.61717,-2.39803 -8.61633,-4.75079 -4.99916,-2.35275 -9.11168,-4.68099 -9.13893,-5.17385 -0.0778,-1.40705 24.22549,0.2848 35.95045,2.50265 30.85148,5.83575 70.94106,19.94678 88.28106,31.07379 2.6372,1.69233 5.0021,2.86983 5.2553,2.61665 0.2532,-0.25318 -0.6122,-3.12357 -1.923,-6.37864 -1.3108,-3.25508 -2.7022,-7.40975 -3.0919,-9.23259 -0.7086,-3.31426 -0.7086,-3.31426 4.1915,-0.83119 5.6291,2.85248 20.9456,12.91195 26.6745,17.51914 3.8634,3.10686 6.6125,4.00609 6.6125,2.1629 0,-2.00719 12.068,-13.75574 16.7439,-16.30068 4.8825,-2.65738 4.8825,-2.65738 6.5743,12.05335 1.8855,16.39499 3.0111,21.39712 5.3386,23.72462 0.8697,0.86975 1.7029,1.44743 1.8515,1.28374 0.1486,-0.16369 -0.1758,-2.77262 -0.7208,-5.79762 -0.8489,-4.71145 -0.692,-6.29058 1.0944,-11.01418 2.0251,-5.35487 10.7705,-15.98582 13.1504,-15.98582 0.7513,0 0.8644,4.10382 0.3738,13.56218 -0.9014,17.37969 0.4072,24.83004 6.2974,35.85271 9.3958,17.58278 12.1649,25.34449 12.2614,34.36835 0.072,6.77817 8.7035,19.7839 21.5375,32.45431 4.3107,4.25565 9.3475,8.75565 11.1931,10 4.7319,3.19048 5.2495,6.16674 1.7141,9.85682 -3.0167,3.14875 -11.5024,7.50264 -20.1596,10.34354 -5.1452,1.68843 -6.4909,2.97369 -4,3.82023 0.6875,0.23365 -0.8631,0.74506 -3.4457,1.13648 -6.819,1.03345 -11.6485,-0.60498 -26.3043,-8.92383 -21.9153,-12.43953 -35.8036,-15.03202 -56.4189,-10.53153 -5.1804,1.13093 -9.5882,1.88692 -9.7951,1.67998 -0.4187,-0.41867 7.1895,-4.93669 10.0274,-5.95466 4.2844,-1.53679 0.096,-2.52253 -8.5881,-2.02128 -10.6204,0.61299 -17.9233,2.26433 -28.37465,6.41604 -4.07147,1.61736 -7.85767,2.94066 -8.41377,2.94066 -0.5561,0 0.80561,-1.89065 3.02603,-4.20145 2.22042,-2.31079 4.03713,-4.59655 4.03713,-5.07945 0,-1.97294 -7.23442,0.88467 -19.75,7.80129 -14.65087,8.09666 -14.3878,8.12693 -12.19086,-1.40237 0.55563,-2.41008 0.8327,-4.55951 0.61571,-4.7765 -0.64469,-0.6447 -8.17284,9.88507 -9.6203,13.4561 -2.24103,5.52883 -0.77525,16.35954 3.34124,24.6887 6.44908,13.04882 15.65696,21.29331 37.38439,33.47296 10.29878,5.77314 20.05428,14.18595 23.70328,20.44088 1.3154,2.25491 3.7499,7.63796 5.41,11.96233 5.3139,13.84264 15.3939,26.80067 23.4169,30.10282 1.7543,0.72204 5.488,1.62113 8.2972,1.99798 2.8091,0.37686 6.4093,1.47689 8.0004,2.44451 2.9338,1.78414 7.6266,9.41186 8.7563,14.2325 0.5544,2.36555 0.2815,2.70198 -2.6227,3.23305 -4.8856,0.89338 -29.8157,0.97041 -33.2416,0.1027 -12.2731,-3.10858 -24.604,-16.14263 -37.6927,-39.84211 -9.78775,-17.72247 -13.30994,-20.18674 -38.80726,-27.15125 -12.09449,-3.30357 -25.26678,-7.7414 -32.58714,-10.97881 -3.14616,-1.39138 -5.91258,-2.3375 -6.1476,-2.10248 -0.23501,0.23502 0.0956,1.40439 0.73474,2.5986 0.63912,1.19421 0.99855,2.33478 0.79874,2.5346 -0.84343,0.84342 -12.68143,-9.01432 -17.17173,-14.29925 -5.24996,-6.17903 -7.14804,-7.56494 -6.305,-4.60366 1.41269,4.96222 1.85652,10.59668 0.78242,9.93285 -2.14293,-1.3244 -9.3281,-12.80608 -12.76772,-20.40243 -7.95983,-17.57913 -13.81538,-28.01677 -15.0339,-26.79825 -0.20687,0.20686 0.58252,2.79712 1.75419,5.75613 3.38674,8.55304 2.48033,14.52571 -3.69988,24.38001 -16.51088,26.32647 -25.3841,49.32512 -25.33516,65.66661 0.0245,8.18267 2.21525,14.3656 6.78368,19.14559 2.60017,2.72059 2.91878,2.79056 9.78014,2.14759 6.08937,-0.57062 7.68277,-0.36343 11.26672,1.46496 5.71205,2.91407 13.87675,14.67861 11.69913,16.85731 -0.94084,0.94131 -39.59291,1.62038 -44.10029,0.77479 -5.02183,-0.9421 -10.13483,-6.60458 -14.63508,-16.20787 -4.12665,-8.80603 -7.81626,-21.52743 -7.81626,-26.94964 0,-3.24476 -0.0297,-3.26535 -2.70434,-1.87771 -1.48738,0.77167 -2.85716,1.25021 -3.04394,1.06342 -0.18679,-0.18678 0.54889,-4.78233 1.63483,-10.21233 2.61147,-13.05803 3.79811,-21.72203 5.52957,-40.37272 0.99853,-10.75579 2.06242,-16.95387 3.47588,-20.25 2.03693,-4.75 2.03693,-4.75 -3.17754,-4.76109 -5.21446,-0.0111 -5.21446,-0.0111 -1.79954,-2.75 1.8782,-1.5064 7.9532,-5.74716 13.5,-9.42392 15.3904,-10.20171 15.23634,-10.02498 8.08508,-9.27456 -6.06848,0.6368 -17.32686,2.77566 -21,3.98956 -1.35145,0.44663 -0.83881,-0.4239 1.58087,-2.68452 4.90573,-4.58324 23.95873,-21.46162 26.41913,-23.40377 1.8516,-1.46159 1.35075,-1.54016 -6.75,-1.0589 -4.8125,0.28592 -8.75,0.39409 -8.75,0.24038 0,-0.1537 4.72233,-3.6193 10.49407,-7.70132 9.97765,-7.05663 11.9371,-8.92186 9.37249,-8.92186 -1.16147,0 -2.61192,0.71455 -30.6968,15.12241 -16.33023,8.37759 -16.33023,8.37759 -4.5,8.87759 11.83024,0.5 11.83024,0.5 -1.66976,8.41006 -20.36542,11.93273 -22.06375,12.85953 -22.59363,12.32964 -0.26922,-0.26922 0.99171,-3.20745 2.80207,-6.5294 1.81036,-3.32195 3.03216,-6.30015 2.71512,-6.61821 -0.31704,-0.31807 -2.35005,0.27861 -4.51779,1.32595 -7.64579,3.69404 -24.40577,8.65589 -24.40577,7.22541 0,-0.35418 4.26743,-5.36885 9.48318,-11.14371 5.21575,-5.77486 9.49075,-10.81728 9.5,-11.20538 0.0232,-0.9748 -6.41336,1.387 -13.53602,4.96681 -5.89228,2.96142 -19.67974,8.23883 -21.52432,8.23883 -0.52688,0 1.18744,-2.12434 3.8096,-4.72075 4.76756,-4.72075 4.76756,-4.72075 1.84879,-5.08271 -4.12576,-0.51164 -11.07299,1.52338 -18.15626,5.31841 -6.07502,3.25485 -6.07502,3.25485 -7.36384,-5.85114 -1.07228,-7.57613 -5.24892,-23.18493 -6.55275,-24.48876 -0.19801,-0.19802 -0.10074,7.3041 0.21616,16.67137 0.64718,19.12973 -0.49596,30.59929 -4.40067,44.15358 -4.55358,15.8067 -10.47196,26.1417 -8.87614,15.5 0.37115,-2.475 0.45523,-4.5 0.18685,-4.5 -0.26838,0 -1.63764,2.51121 -3.04279,5.58047 -1.40515,3.06926 -5.42623,9.70676 -8.93574,14.75 -9.15595,13.15733 -10.97118,17.1015 -10.98106,23.85983 -0.006,4.36592 0.72038,7.17052 3.12261,12.05013 3.73628,7.58947 13.97428,21.38972 22.70253,30.60174 6.30819,6.65783 6.30819,6.65783 16.65403,6.65783 9.02412,0 10.73562,0.27804 13.39686,2.1764 3.68921,2.63166 8.70753,11.48453 8.26715,14.58417 -0.31617,2.22536 -0.44694,2.24121 -20.81817,2.52264 -11.275,0.15577 -21.49657,0.0387 -22.7146,-0.26016 -6.6387,-1.62889 -64.2854,-63.05966 -64.2854,-68.50525 0,-1.02761 1.97412,-5.83951 4.38694,-10.69309 6.00037,-12.07024 8.67793,-21.24872 8.781,-30.10055 0.0719,-6.17661 -0.36084,-8.17348 -2.81954,-13.01033 -4.90014,-9.63975 -18.80344,-33.19573 -19.5984,-33.20504 -0.4125,-0.005 -0.75,0.82064 -0.75,1.83438 0,2.61386 -8.81929,14.81312 -14.61394,20.21468 -6.84587,6.38148 -16.39215,11.79558 -34.38606,19.5018 -40.86155,17.4997 -57.24602,28.54361 -69.30817,46.717 -10.72715,16.16202 -14.71542,35.63198 -9.38505,45.81607 2.06613,3.94751 2.92678,4.59557 8.25,6.21221 3.26877,0.99271 7.04569,2.34731 8.39315,3.01024 2.64234,1.29998 5.52157,5.60311 6.55394,9.79516 0.5731,2.32714 0.29585,2.67973 -2.55552,3.25 -1.75909,0.35182 -11.3546,0.62942 -21.32335,0.6169 -14.72887,-0.0185 -18.74715,-0.32935 -21.44537,-1.65899 z M 762.72699,482.49518 c 8.0672,-2.52697 25.8606,-10.23948 27.5,-11.91983 0.678,-0.69482 0.41,-0.8165 -0.8317,-0.37777 -1.0075,0.35595 -5.0759,0.64718 -9.041,0.64718 -6.9328,0 -7.5139,0.19249 -15.1629,5.02251 -7.94806,5.01887 -12.77075,8.97761 -10.93658,8.97735 0.53472,-7e-5 4.34722,-1.05732 8.47218,-2.34944 z m 0.075,-14.1724 c 5.3731,-0.55044 8.1143,-1.56994 14.992,-5.57581 4.6291,-2.69622 7.7452,-4.89556 6.9246,-4.88743 -5.6841,0.0563 -31.1569,8.82515 -32.64882,11.23912 -0.40719,0.65886 0.23462,0.82965 1.75777,0.46775 1.31953,-0.31352 5.35805,-0.87315 8.97445,-1.24363 z m 90.5756,-8.47374 c -0.9,-4.49994 -3.5218,-7.89778 -7.7638,-10.06189 -5.6902,-2.90289 -6.311,-2.3695 -2.1371,1.83618 2.0625,2.07821 4.875,5.45013 6.25,7.49316 3.0239,4.493 4.4606,4.78128 3.6509,0.73255 z"
       id="path8" />
  </g>
</svg>
