<?xml version="1.0" encoding="UTF-8" standalone="no"?>
<!-- Created with Inkscape (http://www.inkscape.org/) -->

<svg
   version="1.1"
   id="svg1"
   width="568.0108"
   height="319.8826"
   viewBox="0 0 568.0108 319.8826"
   sodipodi:docname="WHITE01.svg"
   inkscape:version="1.4.2 (f4327f4, 2025-05-13)"
   xmlns:inkscape="http://www.inkscape.org/namespaces/inkscape"
   xmlns:sodipodi="http://sodipodi.sourceforge.net/DTD/sodipodi-0.dtd"
   xmlns="http://www.w3.org/2000/svg"
   xmlns:svg="http://www.w3.org/2000/svg">
  <defs
     id="defs1" />
  <sodipodi:namedview
     id="namedview1"
     pagecolor="#ffffff"
     bordercolor="#000000"
     borderopacity="0.25"
     inkscape:showpageshadow="2"
     inkscape:pageopacity="0.0"
     inkscape:pagecheckerboard="0"
     inkscape:deskcolor="#d1d1d1"
     inkscape:zoom="0.75488281"
     inkscape:cx="324.55369"
     inkscape:cy="228.51229"
     inkscape:window-width="1920"
     inkscape:window-height="991"
     inkscape:window-x="1911"
     inkscape:window-y="-9"
     inkscape:window-maximized="1"
     inkscape:current-layer="g1"
     showgrid="false" />
  <g
     inkscape:groupmode="layer"
     inkscape:label="Image"
     id="g1"
     transform="translate(-187.0468,-178.03014)">
    <path
       style="fill:#ffffff;fill-opacity:1;stroke:#ffffff;stroke-opacity:1"
       d="m 511.55757,496.8932 c -4.0144,-1.2219 -8.68296,-10.06118 -16.0293,-30.34929 -1.64261,-4.53633 -2.64194,-5.87204 -5.01123,-6.69798 -1.62771,-0.56742 -2.95947,-1.29801 -2.95947,-1.62353 0,-0.32552 0.99466,-2.48643 2.21036,-4.80202 1.74468,-3.32316 2.2108,-5.89562 2.21243,-12.21016 10e-4,-4.4 -0.35481,-8.95053 -0.79099,-10.11229 -0.61813,-1.64641 -0.35599,-2.22657 1.18856,-2.63048 1.89849,-0.49647 1.92431,-0.78537 0.61575,-6.88772 -1.75467,-8.18271 -1.74889,-8.92677 0.0639,-8.23114 1.90686,0.73174 1.91958,-2.0842 0.0448,-9.93022 -1.33173,-5.5735 -1.31154,-5.76888 0.53562,-5.18261 2.33794,0.74203 2.34354,1.37039 -0.0805,-9.02554 -2.38855,-10.24382 -2.3494,-9.5 -0.5,-9.5 1.7745,0 1.92092,-2.49411 0.40217,-6.85078 -0.93004,-2.66814 -1.59827,-3.14922 -4.3742,-3.14922 -1.80205,0 -5.20322,0.6798 -7.55816,1.51068 -4.99175,1.76119 -5.71179,1.41337 -4.15362,-2.00645 1.02415,-2.24776 0.92177,-2.50423 -0.9997,-2.50423 -1.17739,0 -4.05383,1.12117 -6.3921,2.49149 l -4.2514,2.49148 -0.67436,-3.99148 c -0.37089,-2.19532 -1.00061,-3.99149 -1.39937,-3.99149 -0.39875,0 -2.01839,1.35 -3.59919,3 -1.5808,1.65 -3.23241,3 -3.67025,3 -0.43783,0 -1.96394,-2.3047 -3.39135,-5.12156 -2.71168,-5.35124 -4.05747,-5.46168 -4.61145,-0.37844 l -0.32695,3 -4,-5.19305 c -2.2,-2.85618 -4.3375,-5.21868 -4.75,-5.25 -0.4125,-0.0313 -0.75,1.29305 -0.75,2.94305 0,1.65 -0.35829,3 -0.79621,3 -0.43791,0 -4.3588,-2.7316 -8.71308,-6.07022 -9.85725,-7.558 -19.37048,-12.93331 -25.02291,-14.13886 -4.0379,-0.8612 -7.60574,-0.38267 -12.71027,1.70473 -1.62543,0.66469 -1.64132,0.47046 -0.23658,-2.89155 3.17804,-7.60611 -1.66779,-3.04545 -14.76477,13.8959 -4.67713,6.05 -13.01797,15.36974 -18.53522,20.71053 -15.02306,14.5426 -24.05879,19.85063 -50.56822,29.70625 -7.616,2.83146 -16.166,6.31731 -19,7.74635 -19.29339,9.7286 -33.65274,31.49897 -33.65274,51.02129 0,4.81803 0.25007,5.39353 2.95034,6.7899 1.62269,0.83912 3.76019,1.54163 4.75,1.56112 3.11579,0.0614 6.41248,2.49973 9.40618,6.95723 3.26694,4.86436 3.66591,8.1206 1.24178,10.13489 -2.32691,1.9335 -28.82561,2.4682 -32.3483,0.65274 -3.00243,-1.54734 -6.62224,-8.58433 -7.60295,-14.7803 -0.95029,-6.00371 0.85032,-18.00771 5.70004,-38 2.2014,-9.075 4.66819,-19.629 5.48175,-23.45332 0.81356,-3.82433 2.25364,-7.81148 3.20018,-8.86032 0.94654,-1.04885 4.87098,-3.49166 8.72098,-5.42848 13.50092,-6.7919 21.51561,-13.90164 28.53439,-25.31255 4.11903,-6.69658 4.9588,-9.94533 2.57079,-9.94533 -0.95893,0 -0.0214,-2.66909 3,-8.54088 5.24284,-10.18891 5.62275,-12.3098 1.75057,-9.77265 l -2.64425,1.73258 0.6157,-3.45952 c 0.33863,-1.90274 1.10764,-7.50953 1.70891,-12.45953 1.44719,-11.91414 6.24156,-28.71055 9.11981,-31.95 0.46425,-0.5225 0.84408,-1.61919 0.84408,-2.43709 0,-3.15042 -6.26526,4.59521 -10.01963,12.38709 -4.45175,9.23924 -6.77001,20.0865 -7.58424,35.48713 -0.48824,9.23468 -0.9645,11.36643 -3.91713,17.53327 -1.84872,3.86122 -4.58484,8.13622 -6.08028,9.5 -1.73643,1.58355 -2.51386,1.90478 -2.15137,0.88892 0.31219,-0.87488 0.22057,-2.15222 -0.2036,-2.83853 -0.53026,-0.85798 -1.51136,-0.0486 -3.14026,2.59068 -1.30298,2.11119 -3.9518,5.5974 -5.88627,7.74713 l -3.51722,3.9086 -0.51286,-3.9086 -0.51285,-3.9086 -2.85083,4.5 c -4.24712,6.70404 -11.51333,13.85218 -16.87346,16.59929 -5.20343,2.66679 -5.27446,2.64587 -3.58756,-1.05646 1.84114,-4.04087 0.22632,-4.12677 -4.10011,-0.21811 -4.6353,4.18772 -13.01702,8.67528 -16.2034,8.67528 h -2.20756 l 2.34493,-2.49606 c 2.90037,-3.08731 2.16497,-4.20047 -1.09364,-1.65539 -4.10809,3.20855 -10.6122,6.11411 -16.11963,7.20106 -2.90567,0.57347 -6.36118,1.27196 -7.67891,1.5522 -2.33333,0.49622 -2.38044,0.37911 -1.80435,-4.48513 0.79031,-6.67291 6.04059,-19.03796 10.73831,-25.29003 2.09387,-2.78668 3.57713,-5.66583 3.29613,-6.39811 -0.71447,-1.86186 6.52738,-8.62182 20.89582,-19.50536 21.10961,-15.98972 29.72477,-25.76409 41.7989,-47.42318 9.99554,-17.93042 14.11774,-23.79725 22.89507,-32.58492 12.47285,-12.48753 18.71636,-15.8832 48.17324,-26.20005 33.35854,-11.68334 40.88275,-12.63891 99.90276,-12.68767 l 37.5,-0.031 22,-4.41148 c 32.69203,-6.55547 36.00111,-6.96553 50.58258,-6.26805 10.73432,0.51346 12.91742,0.37987 12.91742,-0.79046 0,-0.77458 -0.45,-1.68645 -1,-2.02637 -2.71324,-1.67688 -0.19308,-2.50402 7.75,-2.54363 4.8125,-0.024 11.3972,-0.59435 14.63268,-1.26745 5.13817,-1.06893 5.67744,-1.39414 4.26101,-2.56967 -2.93938,-2.43947 -0.65999,-3.11925 10.45916,-3.11925 9.90701,0 10.95599,-0.17171 10.69099,-1.75 -0.26228,-1.56202 0.85901,-1.78047 10.43841,-2.03365 10.17287,-0.26887 10.72014,-0.39125 10.5,-2.34805 -0.22356,-1.98718 0.19827,-2.05888 11.2792,-1.91699 l 11.51145,0.1474 10.48855,-9.18263 c 12.4444,-10.89497 19.92808,-16.66258 21.98855,-16.94642 3.77143,-0.51952 4,-0.0606 4,8.03034 0,4.44418 0.42668,8 0.95995,8 0.52798,0 5.68435,-3.18807 11.4586,-7.08461 5.77425,-3.89653 10.96728,-6.79497 11.54005,-6.44098 2.00645,1.24006 0.99924,5.64221 -4.02258,17.5812 l -5.06398,12.03921 7.94724,8.39571 c 9.10359,9.61731 11.83781,14.54291 12.77268,23.00947 0.36438,3.3 1.51946,7.4261 2.56685,9.16911 1.87465,3.11972 16.79839,17.2771 26.09119,24.75136 3.1853,2.56195 4.75,4.57896 4.75,6.12307 0,3.05479 -5.38603,8.31024 -10.98878,10.72236 -2.48117,1.06821 -6.88097,3.07673 -9.77733,4.46338 -6.16308,2.95062 -9.72763,2.7113 -18.69674,-1.25527 -7.90953,-3.49797 -16.746,-5.44163 -24.81927,-5.45923 -10.45504,-0.0228 -15.77817,3.0986 -19.18357,11.24887 -1.85551,4.44086 -3.20183,4.72678 -4.64442,0.98635 -1.05559,-2.73698 -1.07362,-2.7216 -3.80717,3.25 -1.51061,3.3 -3.53963,6.65282 -4.50894,7.45071 -1.57406,1.29568 -1.95282,1.19825 -3.5444,-0.91176 l -1.78202,-2.36248 -1.7374,3.66131 c -0.95558,2.01372 -3.44397,5.57401 -5.52976,7.91176 l -3.79234,4.25046 -0.70234,-2.75 c -0.63894,-2.50176 -2.48552,-3.92125 -2.48552,-1.91065 0,0.46164 -2.65771,3.67601 -5.90603,7.14305 -4.42141,4.71911 -6.35083,6.13301 -7.6755,5.62469 -1.26584,-0.48575 -2.97381,0.50294 -6.0007,3.47361 -2.32717,2.28395 -4.68337,3.87318 -5.23601,3.53164 -0.55263,-0.34155 -2.66189,2.34218 -4.68724,5.96384 -3.60927,6.45399 -7.92291,11.34954 -16.30254,18.50179 -3.45189,2.94628 -4.19198,4.19977 -4.19198,7.09996 0,5.10768 3.6496,9.67582 25.02397,31.32207 10.31875,10.45 19.53131,20.53036 20.47236,22.4008 0.94105,1.87045 2.824,7.27045 4.18434,12 4.05973,14.1147 10.11959,25.78016 17.49392,33.6765 8.18244,8.76165 9.82541,11.20469 9.82541,14.61002 0,3.59631 -3.03965,5.21702 -9.65287,5.1468 -6.06308,-0.0644 -15.70401,-4.3033 -21.73525,-9.55656 -3.98321,-3.46941 -4.04731,-3.6077 -13.10689,-28.27756 -3.24513,-8.83673 -3.36133,-8.9954 -6.40504,-8.74619 -2.91481,0.23864 -3.09995,0.0484 -3.09995,-3.1849 0,-1.89129 -0.42639,-4.56021 -0.94754,-5.93092 -0.95097,-2.50125 -8.22415,-7.93133 -17.55246,-13.10449 -2.75,-1.52505 -8.73559,-5.65626 -13.30131,-9.18047 -4.56572,-3.5242 -8.73556,-6.13926 -9.26631,-5.81124 -0.53075,0.32803 -0.70611,1.01531 -0.38967,1.52731 1.39421,2.25588 -1.45254,0.61729 -4.59654,-2.64577 -5.32646,-5.52818 -18.5482,-14.42333 -21.43881,-14.42333 -1.86682,0 -2.83797,-0.73936 -3.59845,-2.73959 -1.86985,-4.91806 -0.2305,-9.0786 5.91111,-15.002 4.42991,-4.2725 5.12977,-5.31757 3.17998,-4.74849 -11.48524,3.35213 -14.49464,7.20117 -20.01603,25.60056 -4.11388,13.70903 -12.98397,56.0567 -12.98397,61.98821 0,6.337 2.76264,14.43571 6.16779,18.08093 2.55646,2.7367 3.32372,2.98681 8.57003,2.79369 8.56968,-0.31547 8.89493,-0.23465 12.77847,3.17513 6.34341,5.56959 8.29332,11.81272 4.3488,13.92376 -2.49506,1.33532 -33.09799,2.25741 -36.86509,1.11078 z m -107,-6.7828 c -4.46371,-1.62604 -7.02548,-3.92552 -19.47491,-17.48091 -16.63491,-18.11268 -29.39464,-33.63781 -30.18125,-36.7224 -0.33606,-1.31784 0.35587,-4.74026 1.61741,-8 8.39938,-21.70335 10.09454,-30.95064 7.61806,-41.55742 l -1.6018,-6.86054 5.80615,-6.2068 c 3.19339,-3.41374 8.62462,-9.85014 12.0694,-14.30311 11.05409,-14.28929 18.76298,-15.32478 35.66443,-4.79056 4.11538,2.565 7.48251,5.32087 7.48251,6.12415 0,2.73764 -4.15897,13.88357 -7.23792,19.39741 -1.68917,3.025 -6.08304,9.775 -9.76417,15 -12.98135,18.42579 -17.40291,27.73616 -18.5667,39.09541 -0.58939,5.75275 -0.37206,7.0878 1.87593,11.524 2.97975,5.88026 14.22497,19.93274 18.43548,23.03772 3.89692,2.87374 9.48548,4.33051 16.63896,4.33729 5.59367,0.005 6.09201,0.21602 10.18047,4.30447 5.07813,5.07813 6.47967,9.08783 4.03218,11.53575 -1.39104,1.39127 -4.2514,1.70211 -17.37966,1.88866 -8.64301,0.12281 -16.38957,-0.0226 -17.21457,-0.32312 z"
       id="path1" />
  </g>
</svg>
